# xmcd
#
# Track frame offsets:
#	150
#	16435
#	34305
#	47255
#	63072
#	78332
#	95212
#	108630
#	120995
#	132470
#	148202
#	164525
#	182222
#	197237
#
# Disc length: 2903 seconds
#
# Revision: 1
# Processed by: cddbd v1.5.1PL0 Copyright (c) Steve Scherf et al.
# Submitted via: CDex 1.50Beta5
#
DISCID=c80b550e
DTITLE=キャンディーズ - キャンディーズ1676日 Disc 3
DYEAR=2000
DGENRE=Pop
TTITLE0=やさしい悪魔
TTITLE1=あなたのイエスタデイ
TTITLE2=SAMBA NATSU SAMBA
TTITLE3=ハート泥棒
TTITLE4=オレンジの海
TTITLE5=哀愁のシンフォニー
TTITLE6=暑中お見舞い申し上げます
TTITLE7=ミッドナイト・ハイウェイ
TTITLE8=今日から私は
TTITLE9=素敵な魔法使い
TTITLE10=アン・ドゥ・トロワ
TTITLE11=HELLO! CANDIES
TTITLE12=わな
TTITLE13=微笑がえし
EXTD=
EXTT0=
EXTT1=
EXTT2=
EXTT3=
EXTT4=
EXTT5=
EXTT6=
EXTT7=
EXTT8=
EXTT9=
EXTT10=
EXTT11=
EXTT12=
EXTT13=
PLAYORDER=
